# xmcd
#
# Track frame offsets: 
#        150
#        12200
#        27630
#        49287
#        68759
#        86335
#        102017
#        116116
#        131268
#        141268
#        161866
#        179979
#        195177
#        211430
#
# Disc length: 3074 seconds
#
# Revision: 0
# Processed by: cddbd v1.5.2PL0 Copyright (c) Steve Scherf et al.
# Submitted via: ExactAudioCopyFreeDBPlugin 1.0
#
DISCID=c80c000e
DTITLE=The John Lowell Band - The Skalkaho Road
DYEAR=2016
DGENRE=Bluegrass
TTITLE0=The Skalkaho Road
TTITLE1=Steel Rail Blues
TTITLE2=Let 'Er Go
TTITLE3=Buckeye Creek
TTITLE4=When Will You Be Home
TTITLE5=Small Town Train
TTITLE6=I Don't Know Why She Left
TTITLE7=The Meadow Way Back in the Hills
TTITLE8=Don't Be Late for Dinner
TTITLE9=Gospel Plough
TTITLE10=Hollyhock
TTITLE11=Coming o'er the Hill
TTITLE12=Detour
TTITLE13=Song of Wyoming
EXTD=
EXTT0=
EXTT1=
EXTT2=
EXTT3=
EXTT4=
EXTT5=
EXTT6=
EXTT7=
EXTT8=
EXTT9=
EXTT10=
EXTT11=
EXTT12=
EXTT13=
PLAYORDER=
